<mxfile host="app.diagrams.net" agent="Mozilla/5.0 (Windows NT 10.0; Win64; x64; rv:142.0) Gecko/20100101 Firefox/142.0" version="28.1.1">
  <diagram name="Page-1" id="GhHrxKC3wiG8L_W0QGzW">
    <mxGraphModel dx="2385" dy="1570" grid="1" gridSize="10" guides="1" tooltips="1" connect="1" arrows="1" fold="1" page="0" pageScale="1" pageWidth="827" pageHeight="1169" math="0" shadow="0">
      <root>
        <mxCell id="0" />
        <mxCell id="1" parent="0" />
        <mxCell id="wv_eOz-KuKoO2hbkCVXG-1" value="&amp;lt;&amp;lt;EspacioEscolar&amp;gt;&amp;gt;" style="swimlane;fontStyle=1;align=center;verticalAlign=top;childLayout=stackLayout;horizontal=1;startSize=26;horizontalStack=0;resizeParent=1;resizeParentMax=0;resizeLast=0;collapsible=1;marginBottom=0;whiteSpace=wrap;html=1;" parent="1" vertex="1">
          <mxGeometry x="360" y="450" width="160" height="190" as="geometry" />
        </mxCell>
        <mxCell id="wv_eOz-KuKoO2hbkCVXG-2" value="&lt;div&gt;+ nombre: String&lt;/div&gt;&lt;div&gt;&lt;br&gt;&lt;/div&gt;" style="text;strokeColor=none;fillColor=none;align=left;verticalAlign=top;spacingLeft=4;spacingRight=4;overflow=hidden;rotatable=0;points=[[0,0.5],[1,0.5]];portConstraint=eastwest;whiteSpace=wrap;html=1;" parent="wv_eOz-KuKoO2hbkCVXG-1" vertex="1">
          <mxGeometry y="26" width="160" height="26" as="geometry" />
        </mxCell>
        <mxCell id="wv_eOz-KuKoO2hbkCVXG-7" value="&lt;div&gt;+ ubicacion: String&lt;/div&gt;" style="text;strokeColor=none;fillColor=none;align=left;verticalAlign=top;spacingLeft=4;spacingRight=4;overflow=hidden;rotatable=0;points=[[0,0.5],[1,0.5]];portConstraint=eastwest;whiteSpace=wrap;html=1;" parent="wv_eOz-KuKoO2hbkCVXG-1" vertex="1">
          <mxGeometry y="52" width="160" height="26" as="geometry" />
        </mxCell>
        <mxCell id="wv_eOz-KuKoO2hbkCVXG-8" value="+ habilitado: Boolean" style="text;strokeColor=none;fillColor=none;align=left;verticalAlign=top;spacingLeft=4;spacingRight=4;overflow=hidden;rotatable=0;points=[[0,0.5],[1,0.5]];portConstraint=eastwest;whiteSpace=wrap;html=1;" parent="wv_eOz-KuKoO2hbkCVXG-1" vertex="1">
          <mxGeometry y="78" width="160" height="26" as="geometry" />
        </mxCell>
        <mxCell id="wv_eOz-KuKoO2hbkCVXG-3" value="" style="line;strokeWidth=1;fillColor=none;align=left;verticalAlign=middle;spacingTop=-1;spacingLeft=3;spacingRight=3;rotatable=0;labelPosition=right;points=[];portConstraint=eastwest;strokeColor=inherit;" parent="wv_eOz-KuKoO2hbkCVXG-1" vertex="1">
          <mxGeometry y="104" width="160" height="8" as="geometry" />
        </mxCell>
        <mxCell id="wv_eOz-KuKoO2hbkCVXG-4" value="+ abrir(): void" style="text;strokeColor=none;fillColor=none;align=left;verticalAlign=top;spacingLeft=4;spacingRight=4;overflow=hidden;rotatable=0;points=[[0,0.5],[1,0.5]];portConstraint=eastwest;whiteSpace=wrap;html=1;" parent="wv_eOz-KuKoO2hbkCVXG-1" vertex="1">
          <mxGeometry y="112" width="160" height="26" as="geometry" />
        </mxCell>
        <mxCell id="wv_eOz-KuKoO2hbkCVXG-9" value="+ cerrar(): void" style="text;strokeColor=none;fillColor=none;align=left;verticalAlign=top;spacingLeft=4;spacingRight=4;overflow=hidden;rotatable=0;points=[[0,0.5],[1,0.5]];portConstraint=eastwest;whiteSpace=wrap;html=1;" parent="wv_eOz-KuKoO2hbkCVXG-1" vertex="1">
          <mxGeometry y="138" width="160" height="26" as="geometry" />
        </mxCell>
        <mxCell id="wv_eOz-KuKoO2hbkCVXG-10" value="+ limpiar(): void" style="text;strokeColor=none;fillColor=none;align=left;verticalAlign=top;spacingLeft=4;spacingRight=4;overflow=hidden;rotatable=0;points=[[0,0.5],[1,0.5]];portConstraint=eastwest;whiteSpace=wrap;html=1;" parent="wv_eOz-KuKoO2hbkCVXG-1" vertex="1">
          <mxGeometry y="164" width="160" height="26" as="geometry" />
        </mxCell>
        <mxCell id="wv_eOz-KuKoO2hbkCVXG-11" value="Patio" style="swimlane;fontStyle=1;align=center;verticalAlign=top;childLayout=stackLayout;horizontal=1;startSize=26;horizontalStack=0;resizeParent=1;resizeParentMax=0;resizeLast=0;collapsible=1;marginBottom=0;whiteSpace=wrap;html=1;" parent="1" vertex="1">
          <mxGeometry x="-92" y="790" width="210" height="210" as="geometry" />
        </mxCell>
        <mxCell id="wv_eOz-KuKoO2hbkCVXG-12" value="+ superficie: Int" style="text;strokeColor=none;fillColor=none;align=left;verticalAlign=top;spacingLeft=4;spacingRight=4;overflow=hidden;rotatable=0;points=[[0,0.5],[1,0.5]];portConstraint=eastwest;whiteSpace=wrap;html=1;" parent="wv_eOz-KuKoO2hbkCVXG-11" vertex="1">
          <mxGeometry y="26" width="210" height="26" as="geometry" />
        </mxCell>
        <mxCell id="wv_eOz-KuKoO2hbkCVXG-13" value="+ tieneJuegos: Boolean" style="text;strokeColor=none;fillColor=none;align=left;verticalAlign=top;spacingLeft=4;spacingRight=4;overflow=hidden;rotatable=0;points=[[0,0.5],[1,0.5]];portConstraint=eastwest;whiteSpace=wrap;html=1;" parent="wv_eOz-KuKoO2hbkCVXG-11" vertex="1">
          <mxGeometry y="52" width="210" height="26" as="geometry" />
        </mxCell>
        <mxCell id="wv_eOz-KuKoO2hbkCVXG-20" value="+ tieneCanchaFutbol: Boolean" style="text;strokeColor=none;fillColor=none;align=left;verticalAlign=top;spacingLeft=4;spacingRight=4;overflow=hidden;rotatable=0;points=[[0,0.5],[1,0.5]];portConstraint=eastwest;whiteSpace=wrap;html=1;" parent="wv_eOz-KuKoO2hbkCVXG-11" vertex="1">
          <mxGeometry y="78" width="210" height="26" as="geometry" />
        </mxCell>
        <mxCell id="wv_eOz-KuKoO2hbkCVXG-21" value="+ tieneCanchaBasket: Boolean" style="text;strokeColor=none;fillColor=none;align=left;verticalAlign=top;spacingLeft=4;spacingRight=4;overflow=hidden;rotatable=0;points=[[0,0.5],[1,0.5]];portConstraint=eastwest;whiteSpace=wrap;html=1;" parent="wv_eOz-KuKoO2hbkCVXG-11" vertex="1">
          <mxGeometry y="104" width="210" height="26" as="geometry" />
        </mxCell>
        <mxCell id="wv_eOz-KuKoO2hbkCVXG-22" value="+ tieneJuegos: Boolean" style="text;strokeColor=none;fillColor=none;align=left;verticalAlign=top;spacingLeft=4;spacingRight=4;overflow=hidden;rotatable=0;points=[[0,0.5],[1,0.5]];portConstraint=eastwest;whiteSpace=wrap;html=1;" parent="wv_eOz-KuKoO2hbkCVXG-11" vertex="1">
          <mxGeometry y="130" width="210" height="26" as="geometry" />
        </mxCell>
        <mxCell id="wv_eOz-KuKoO2hbkCVXG-15" value="" style="line;strokeWidth=1;fillColor=none;align=left;verticalAlign=middle;spacingTop=-1;spacingLeft=3;spacingRight=3;rotatable=0;labelPosition=right;points=[];portConstraint=eastwest;strokeColor=inherit;" parent="wv_eOz-KuKoO2hbkCVXG-11" vertex="1">
          <mxGeometry y="156" width="210" height="54" as="geometry" />
        </mxCell>
        <mxCell id="wv_eOz-KuKoO2hbkCVXG-23" value="Sum" style="swimlane;fontStyle=1;align=center;verticalAlign=top;childLayout=stackLayout;horizontal=1;startSize=26;horizontalStack=0;resizeParent=1;resizeParentMax=0;resizeLast=0;collapsible=1;marginBottom=0;whiteSpace=wrap;html=1;" parent="1" vertex="1">
          <mxGeometry x="188" y="790" width="210" height="198" as="geometry" />
        </mxCell>
        <mxCell id="wv_eOz-KuKoO2hbkCVXG-24" value="+ capacidad: Int" style="text;strokeColor=none;fillColor=none;align=left;verticalAlign=top;spacingLeft=4;spacingRight=4;overflow=hidden;rotatable=0;points=[[0,0.5],[1,0.5]];portConstraint=eastwest;whiteSpace=wrap;html=1;" parent="wv_eOz-KuKoO2hbkCVXG-23" vertex="1">
          <mxGeometry y="26" width="210" height="26" as="geometry" />
        </mxCell>
        <mxCell id="wv_eOz-KuKoO2hbkCVXG-25" value="+ tieneCalefaccion: Boolean" style="text;strokeColor=none;fillColor=none;align=left;verticalAlign=top;spacingLeft=4;spacingRight=4;overflow=hidden;rotatable=0;points=[[0,0.5],[1,0.5]];portConstraint=eastwest;whiteSpace=wrap;html=1;" parent="wv_eOz-KuKoO2hbkCVXG-23" vertex="1">
          <mxGeometry y="52" width="210" height="26" as="geometry" />
        </mxCell>
        <mxCell id="wv_eOz-KuKoO2hbkCVXG-26" value="+ tieneProyector: Boolean" style="text;strokeColor=none;fillColor=none;align=left;verticalAlign=top;spacingLeft=4;spacingRight=4;overflow=hidden;rotatable=0;points=[[0,0.5],[1,0.5]];portConstraint=eastwest;whiteSpace=wrap;html=1;" parent="wv_eOz-KuKoO2hbkCVXG-23" vertex="1">
          <mxGeometry y="78" width="210" height="26" as="geometry" />
        </mxCell>
        <mxCell id="wv_eOz-KuKoO2hbkCVXG-29" value="" style="line;strokeWidth=1;fillColor=none;align=left;verticalAlign=middle;spacingTop=-1;spacingLeft=3;spacingRight=3;rotatable=0;labelPosition=right;points=[];portConstraint=eastwest;strokeColor=inherit;" parent="wv_eOz-KuKoO2hbkCVXG-23" vertex="1">
          <mxGeometry y="104" width="210" height="16" as="geometry" />
        </mxCell>
        <mxCell id="wv_eOz-KuKoO2hbkCVXG-37" value="&lt;div&gt;+ realizarActo():void&lt;/div&gt;" style="text;strokeColor=none;fillColor=none;align=left;verticalAlign=top;spacingLeft=4;spacingRight=4;overflow=hidden;rotatable=0;points=[[0,0.5],[1,0.5]];portConstraint=eastwest;whiteSpace=wrap;html=1;" parent="wv_eOz-KuKoO2hbkCVXG-23" vertex="1">
          <mxGeometry y="120" width="210" height="26" as="geometry" />
        </mxCell>
        <mxCell id="wv_eOz-KuKoO2hbkCVXG-38" value="+ realizarReunion(): void" style="text;strokeColor=none;fillColor=none;align=left;verticalAlign=top;spacingLeft=4;spacingRight=4;overflow=hidden;rotatable=0;points=[[0,0.5],[1,0.5]];portConstraint=eastwest;whiteSpace=wrap;html=1;" parent="wv_eOz-KuKoO2hbkCVXG-23" vertex="1">
          <mxGeometry y="146" width="210" height="26" as="geometry" />
        </mxCell>
        <mxCell id="wv_eOz-KuKoO2hbkCVXG-39" value="+ realizarDeporte(): void" style="text;strokeColor=none;fillColor=none;align=left;verticalAlign=top;spacingLeft=4;spacingRight=4;overflow=hidden;rotatable=0;points=[[0,0.5],[1,0.5]];portConstraint=eastwest;whiteSpace=wrap;html=1;" parent="wv_eOz-KuKoO2hbkCVXG-23" vertex="1">
          <mxGeometry y="172" width="210" height="26" as="geometry" />
        </mxCell>
        <mxCell id="wv_eOz-KuKoO2hbkCVXG-30" value="Laboratorio" style="swimlane;fontStyle=1;align=center;verticalAlign=top;childLayout=stackLayout;horizontal=1;startSize=26;horizontalStack=0;resizeParent=1;resizeParentMax=0;resizeLast=0;collapsible=1;marginBottom=0;whiteSpace=wrap;html=1;" parent="1" vertex="1">
          <mxGeometry x="478" y="790" width="220" height="152" as="geometry" />
        </mxCell>
        <mxCell id="wv_eOz-KuKoO2hbkCVXG-33" value="+ tipo: TipoLaboratorio" style="text;strokeColor=none;fillColor=none;align=left;verticalAlign=top;spacingLeft=4;spacingRight=4;overflow=hidden;rotatable=0;points=[[0,0.5],[1,0.5]];portConstraint=eastwest;whiteSpace=wrap;html=1;" parent="wv_eOz-KuKoO2hbkCVXG-30" vertex="1">
          <mxGeometry y="26" width="220" height="26" as="geometry" />
        </mxCell>
        <mxCell id="wv_eOz-KuKoO2hbkCVXG-35" value="+ equipamiento: List&amp;lt;String&amp;gt;" style="text;strokeColor=none;fillColor=none;align=left;verticalAlign=top;spacingLeft=4;spacingRight=4;overflow=hidden;rotatable=0;points=[[0,0.5],[1,0.5]];portConstraint=eastwest;whiteSpace=wrap;html=1;" parent="wv_eOz-KuKoO2hbkCVXG-30" vertex="1">
          <mxGeometry y="52" width="220" height="26" as="geometry" />
        </mxCell>
        <mxCell id="wv_eOz-KuKoO2hbkCVXG-34" value="" style="line;strokeWidth=1;fillColor=none;align=left;verticalAlign=middle;spacingTop=-1;spacingLeft=3;spacingRight=3;rotatable=0;labelPosition=right;points=[];portConstraint=eastwest;strokeColor=inherit;" parent="wv_eOz-KuKoO2hbkCVXG-30" vertex="1">
          <mxGeometry y="78" width="220" height="22" as="geometry" />
        </mxCell>
        <mxCell id="wv_eOz-KuKoO2hbkCVXG-40" value="+ agregarEquipo(equipo: String): void" style="text;strokeColor=none;fillColor=none;align=left;verticalAlign=top;spacingLeft=4;spacingRight=4;overflow=hidden;rotatable=0;points=[[0,0.5],[1,0.5]];portConstraint=eastwest;whiteSpace=wrap;html=1;" parent="wv_eOz-KuKoO2hbkCVXG-30" vertex="1">
          <mxGeometry y="100" width="220" height="26" as="geometry" />
        </mxCell>
        <mxCell id="wv_eOz-KuKoO2hbkCVXG-41" value="+ consultarEquipo(equipo: String): void" style="text;strokeColor=none;fillColor=none;align=left;verticalAlign=top;spacingLeft=4;spacingRight=4;overflow=hidden;rotatable=0;points=[[0,0.5],[1,0.5]];portConstraint=eastwest;whiteSpace=wrap;html=1;" parent="wv_eOz-KuKoO2hbkCVXG-30" vertex="1">
          <mxGeometry y="126" width="220" height="26" as="geometry" />
        </mxCell>
        <mxCell id="wv_eOz-KuKoO2hbkCVXG-42" value="Aula" style="swimlane;fontStyle=1;align=center;verticalAlign=top;childLayout=stackLayout;horizontal=1;startSize=26;horizontalStack=0;resizeParent=1;resizeParentMax=0;resizeLast=0;collapsible=1;marginBottom=0;whiteSpace=wrap;html=1;" parent="1" vertex="1">
          <mxGeometry x="758" y="790" width="220" height="120" as="geometry" />
        </mxCell>
        <mxCell id="wv_eOz-KuKoO2hbkCVXG-43" value="+ numero: Int" style="text;strokeColor=none;fillColor=none;align=left;verticalAlign=top;spacingLeft=4;spacingRight=4;overflow=hidden;rotatable=0;points=[[0,0.5],[1,0.5]];portConstraint=eastwest;whiteSpace=wrap;html=1;" parent="wv_eOz-KuKoO2hbkCVXG-42" vertex="1">
          <mxGeometry y="26" width="220" height="26" as="geometry" />
        </mxCell>
        <mxCell id="wv_eOz-KuKoO2hbkCVXG-44" value="+ tieneProyector: Boolean" style="text;strokeColor=none;fillColor=none;align=left;verticalAlign=top;spacingLeft=4;spacingRight=4;overflow=hidden;rotatable=0;points=[[0,0.5],[1,0.5]];portConstraint=eastwest;whiteSpace=wrap;html=1;" parent="wv_eOz-KuKoO2hbkCVXG-42" vertex="1">
          <mxGeometry y="52" width="220" height="26" as="geometry" />
        </mxCell>
        <mxCell id="wv_eOz-KuKoO2hbkCVXG-45" value="" style="line;strokeWidth=1;fillColor=none;align=left;verticalAlign=middle;spacingTop=-1;spacingLeft=3;spacingRight=3;rotatable=0;labelPosition=right;points=[];portConstraint=eastwest;strokeColor=inherit;" parent="wv_eOz-KuKoO2hbkCVXG-42" vertex="1">
          <mxGeometry y="78" width="220" height="42" as="geometry" />
        </mxCell>
        <mxCell id="wv_eOz-KuKoO2hbkCVXG-48" value="&amp;lt;&amp;lt;Escuela&amp;gt;&amp;gt;" style="swimlane;fontStyle=1;align=center;verticalAlign=top;childLayout=stackLayout;horizontal=1;startSize=26;horizontalStack=0;resizeParent=1;resizeParentMax=0;resizeLast=0;collapsible=1;marginBottom=0;whiteSpace=wrap;html=1;" parent="1" vertex="1">
          <mxGeometry x="340" y="1090" width="200" height="320" as="geometry" />
        </mxCell>
        <mxCell id="wv_eOz-KuKoO2hbkCVXG-49" value="+ nombre: String" style="text;strokeColor=none;fillColor=none;align=left;verticalAlign=top;spacingLeft=4;spacingRight=4;overflow=hidden;rotatable=0;points=[[0,0.5],[1,0.5]];portConstraint=eastwest;whiteSpace=wrap;html=1;" parent="wv_eOz-KuKoO2hbkCVXG-48" vertex="1">
          <mxGeometry y="26" width="200" height="26" as="geometry" />
        </mxCell>
        <mxCell id="wv_eOz-KuKoO2hbkCVXG-52" value="+ numeroEscuela: Int" style="text;strokeColor=none;fillColor=none;align=left;verticalAlign=top;spacingLeft=4;spacingRight=4;overflow=hidden;rotatable=0;points=[[0,0.5],[1,0.5]];portConstraint=eastwest;whiteSpace=wrap;html=1;" parent="wv_eOz-KuKoO2hbkCVXG-48" vertex="1">
          <mxGeometry y="52" width="200" height="26" as="geometry" />
        </mxCell>
        <mxCell id="wv_eOz-KuKoO2hbkCVXG-53" value="+ direccion: String" style="text;strokeColor=none;fillColor=none;align=left;verticalAlign=top;spacingLeft=4;spacingRight=4;overflow=hidden;rotatable=0;points=[[0,0.5],[1,0.5]];portConstraint=eastwest;whiteSpace=wrap;html=1;" parent="wv_eOz-KuKoO2hbkCVXG-48" vertex="1">
          <mxGeometry y="78" width="200" height="26" as="geometry" />
        </mxCell>
        <mxCell id="wv_eOz-KuKoO2hbkCVXG-54" value="+ telefonos: List&amp;lt;Int&amp;gt;" style="text;strokeColor=none;fillColor=none;align=left;verticalAlign=top;spacingLeft=4;spacingRight=4;overflow=hidden;rotatable=0;points=[[0,0.5],[1,0.5]];portConstraint=eastwest;whiteSpace=wrap;html=1;" parent="wv_eOz-KuKoO2hbkCVXG-48" vertex="1">
          <mxGeometry y="104" width="200" height="26" as="geometry" />
        </mxCell>
        <mxCell id="wv_eOz-KuKoO2hbkCVXG-55" value="+ email: String" style="text;strokeColor=none;fillColor=none;align=left;verticalAlign=top;spacingLeft=4;spacingRight=4;overflow=hidden;rotatable=0;points=[[0,0.5],[1,0.5]];portConstraint=eastwest;whiteSpace=wrap;html=1;" parent="wv_eOz-KuKoO2hbkCVXG-48" vertex="1">
          <mxGeometry y="130" width="200" height="26" as="geometry" />
        </mxCell>
        <mxCell id="wv_eOz-KuKoO2hbkCVXG-56" value="# patios: List&amp;lt;Patio&amp;gt;" style="text;strokeColor=none;fillColor=none;align=left;verticalAlign=top;spacingLeft=4;spacingRight=4;overflow=hidden;rotatable=0;points=[[0,0.5],[1,0.5]];portConstraint=eastwest;whiteSpace=wrap;html=1;" parent="wv_eOz-KuKoO2hbkCVXG-48" vertex="1">
          <mxGeometry y="156" width="200" height="26" as="geometry" />
        </mxCell>
        <mxCell id="wv_eOz-KuKoO2hbkCVXG-57" value="# sums: List&amp;lt;Sum&amp;gt;" style="text;strokeColor=none;fillColor=none;align=left;verticalAlign=top;spacingLeft=4;spacingRight=4;overflow=hidden;rotatable=0;points=[[0,0.5],[1,0.5]];portConstraint=eastwest;whiteSpace=wrap;html=1;" parent="wv_eOz-KuKoO2hbkCVXG-48" vertex="1">
          <mxGeometry y="182" width="200" height="26" as="geometry" />
        </mxCell>
        <mxCell id="wv_eOz-KuKoO2hbkCVXG-58" value="# laboratorios: List&amp;lt;Laboratorio&amp;gt;" style="text;strokeColor=none;fillColor=none;align=left;verticalAlign=top;spacingLeft=4;spacingRight=4;overflow=hidden;rotatable=0;points=[[0,0.5],[1,0.5]];portConstraint=eastwest;whiteSpace=wrap;html=1;" parent="wv_eOz-KuKoO2hbkCVXG-48" vertex="1">
          <mxGeometry y="208" width="200" height="26" as="geometry" />
        </mxCell>
        <mxCell id="wv_eOz-KuKoO2hbkCVXG-59" value="# aulas: List&amp;lt;Aula&amp;gt;" style="text;strokeColor=none;fillColor=none;align=left;verticalAlign=top;spacingLeft=4;spacingRight=4;overflow=hidden;rotatable=0;points=[[0,0.5],[1,0.5]];portConstraint=eastwest;whiteSpace=wrap;html=1;" parent="wv_eOz-KuKoO2hbkCVXG-48" vertex="1">
          <mxGeometry y="234" width="200" height="26" as="geometry" />
        </mxCell>
        <mxCell id="wv_eOz-KuKoO2hbkCVXG-50" value="" style="line;strokeWidth=1;fillColor=none;align=left;verticalAlign=middle;spacingTop=-1;spacingLeft=3;spacingRight=3;rotatable=0;labelPosition=right;points=[];portConstraint=eastwest;strokeColor=inherit;" parent="wv_eOz-KuKoO2hbkCVXG-48" vertex="1">
          <mxGeometry y="260" width="200" height="8" as="geometry" />
        </mxCell>
        <mxCell id="wv_eOz-KuKoO2hbkCVXG-51" value="+ abrirEscuela(): void" style="text;strokeColor=none;fillColor=none;align=left;verticalAlign=top;spacingLeft=4;spacingRight=4;overflow=hidden;rotatable=0;points=[[0,0.5],[1,0.5]];portConstraint=eastwest;whiteSpace=wrap;html=1;" parent="wv_eOz-KuKoO2hbkCVXG-48" vertex="1">
          <mxGeometry y="268" width="200" height="26" as="geometry" />
        </mxCell>
        <mxCell id="wv_eOz-KuKoO2hbkCVXG-60" value="+ cerrarEscuela(): void" style="text;strokeColor=none;fillColor=none;align=left;verticalAlign=top;spacingLeft=4;spacingRight=4;overflow=hidden;rotatable=0;points=[[0,0.5],[1,0.5]];portConstraint=eastwest;whiteSpace=wrap;html=1;" parent="wv_eOz-KuKoO2hbkCVXG-48" vertex="1">
          <mxGeometry y="294" width="200" height="26" as="geometry" />
        </mxCell>
        <mxCell id="n1KUfku4hT0wacVZhFsQ-102" style="edgeStyle=orthogonalEdgeStyle;rounded=0;orthogonalLoop=1;jettySize=auto;html=1;exitX=0.5;exitY=1;exitDx=0;exitDy=0;startArrow=diamondThin;startFill=1;startSize=20;endArrow=none;endFill=0;" edge="1" parent="1" source="wv_eOz-KuKoO2hbkCVXG-61" target="n1KUfku4hT0wacVZhFsQ-17">
          <mxGeometry relative="1" as="geometry" />
        </mxCell>
        <mxCell id="wv_eOz-KuKoO2hbkCVXG-61" value="Primaria" style="swimlane;fontStyle=1;align=center;verticalAlign=top;childLayout=stackLayout;horizontal=1;startSize=26;horizontalStack=0;resizeParent=1;resizeParentMax=0;resizeLast=0;collapsible=1;marginBottom=0;whiteSpace=wrap;html=1;" parent="1" vertex="1">
          <mxGeometry x="250" y="1460" width="380" height="446" as="geometry" />
        </mxCell>
        <mxCell id="wv_eOz-KuKoO2hbkCVXG-62" value="- director: Director" style="text;strokeColor=none;fillColor=none;align=left;verticalAlign=top;spacingLeft=4;spacingRight=4;overflow=hidden;rotatable=0;points=[[0,0.5],[1,0.5]];portConstraint=eastwest;whiteSpace=wrap;html=1;" parent="wv_eOz-KuKoO2hbkCVXG-61" vertex="1">
          <mxGeometry y="26" width="380" height="26" as="geometry" />
        </mxCell>
        <mxCell id="wv_eOz-KuKoO2hbkCVXG-63" value="- docentes: List&amp;lt;Docente&amp;gt;" style="text;strokeColor=none;fillColor=none;align=left;verticalAlign=top;spacingLeft=4;spacingRight=4;overflow=hidden;rotatable=0;points=[[0,0.5],[1,0.5]];portConstraint=eastwest;whiteSpace=wrap;html=1;" parent="wv_eOz-KuKoO2hbkCVXG-61" vertex="1">
          <mxGeometry y="52" width="380" height="26" as="geometry" />
        </mxCell>
        <mxCell id="wv_eOz-KuKoO2hbkCVXG-64" value="- alumnos: List&amp;lt;Alumno&amp;gt;" style="text;strokeColor=none;fillColor=none;align=left;verticalAlign=top;spacingLeft=4;spacingRight=4;overflow=hidden;rotatable=0;points=[[0,0.5],[1,0.5]];portConstraint=eastwest;whiteSpace=wrap;html=1;" parent="wv_eOz-KuKoO2hbkCVXG-61" vertex="1">
          <mxGeometry y="78" width="380" height="26" as="geometry" />
        </mxCell>
        <mxCell id="wv_eOz-KuKoO2hbkCVXG-65" value="- materias: List&amp;lt;Materia&amp;gt;" style="text;strokeColor=none;fillColor=none;align=left;verticalAlign=top;spacingLeft=4;spacingRight=4;overflow=hidden;rotatable=0;points=[[0,0.5],[1,0.5]];portConstraint=eastwest;whiteSpace=wrap;html=1;" parent="wv_eOz-KuKoO2hbkCVXG-61" vertex="1">
          <mxGeometry y="104" width="380" height="26" as="geometry" />
        </mxCell>
        <mxCell id="n1KUfku4hT0wacVZhFsQ-99" value="- cursos: List&amp;lt;Curso&amp;gt;" style="text;strokeColor=none;fillColor=none;align=left;verticalAlign=top;spacingLeft=4;spacingRight=4;overflow=hidden;rotatable=0;points=[[0,0.5],[1,0.5]];portConstraint=eastwest;whiteSpace=wrap;html=1;" vertex="1" parent="wv_eOz-KuKoO2hbkCVXG-61">
          <mxGeometry y="130" width="380" height="26" as="geometry" />
        </mxCell>
        <mxCell id="wv_eOz-KuKoO2hbkCVXG-71" value="" style="line;strokeWidth=1;fillColor=none;align=left;verticalAlign=middle;spacingTop=-1;spacingLeft=3;spacingRight=3;rotatable=0;labelPosition=right;points=[];portConstraint=eastwest;strokeColor=inherit;" parent="wv_eOz-KuKoO2hbkCVXG-61" vertex="1">
          <mxGeometry y="156" width="380" height="30" as="geometry" />
        </mxCell>
        <mxCell id="n1KUfku4hT0wacVZhFsQ-1" value="+ agregarMateria(materia: Materia): void" style="text;strokeColor=none;fillColor=none;align=left;verticalAlign=top;spacingLeft=4;spacingRight=4;overflow=hidden;rotatable=0;points=[[0,0.5],[1,0.5]];portConstraint=eastwest;whiteSpace=wrap;html=1;" vertex="1" parent="wv_eOz-KuKoO2hbkCVXG-61">
          <mxGeometry y="186" width="380" height="26" as="geometry" />
        </mxCell>
        <mxCell id="n1KUfku4hT0wacVZhFsQ-2" value="+ quitarMateria(materia: Materia): void" style="text;strokeColor=none;fillColor=none;align=left;verticalAlign=top;spacingLeft=4;spacingRight=4;overflow=hidden;rotatable=0;points=[[0,0.5],[1,0.5]];portConstraint=eastwest;whiteSpace=wrap;html=1;" vertex="1" parent="wv_eOz-KuKoO2hbkCVXG-61">
          <mxGeometry y="212" width="380" height="26" as="geometry" />
        </mxCell>
        <mxCell id="n1KUfku4hT0wacVZhFsQ-3" value="+ inscribirAlumno(alumno: Alumno): void" style="text;strokeColor=none;fillColor=none;align=left;verticalAlign=top;spacingLeft=4;spacingRight=4;overflow=hidden;rotatable=0;points=[[0,0.5],[1,0.5]];portConstraint=eastwest;whiteSpace=wrap;html=1;" vertex="1" parent="wv_eOz-KuKoO2hbkCVXG-61">
          <mxGeometry y="238" width="380" height="26" as="geometry" />
        </mxCell>
        <mxCell id="n1KUfku4hT0wacVZhFsQ-4" value="+ darDeBajaAlumno(alumno: Alumno): void" style="text;strokeColor=none;fillColor=none;align=left;verticalAlign=top;spacingLeft=4;spacingRight=4;overflow=hidden;rotatable=0;points=[[0,0.5],[1,0.5]];portConstraint=eastwest;whiteSpace=wrap;html=1;" vertex="1" parent="wv_eOz-KuKoO2hbkCVXG-61">
          <mxGeometry y="264" width="380" height="26" as="geometry" />
        </mxCell>
        <mxCell id="n1KUfku4hT0wacVZhFsQ-7" value="&lt;div&gt;+ listarAlumnos(): List&amp;lt;Alumnos&amp;gt;&lt;/div&gt;" style="text;strokeColor=none;fillColor=none;align=left;verticalAlign=top;spacingLeft=4;spacingRight=4;overflow=hidden;rotatable=0;points=[[0,0.5],[1,0.5]];portConstraint=eastwest;whiteSpace=wrap;html=1;" vertex="1" parent="wv_eOz-KuKoO2hbkCVXG-61">
          <mxGeometry y="290" width="380" height="26" as="geometry" />
        </mxCell>
        <mxCell id="n1KUfku4hT0wacVZhFsQ-8" value="+ listarDocentes(): List&amp;lt;Docente&amp;gt;" style="text;strokeColor=none;fillColor=none;align=left;verticalAlign=top;spacingLeft=4;spacingRight=4;overflow=hidden;rotatable=0;points=[[0,0.5],[1,0.5]];portConstraint=eastwest;whiteSpace=wrap;html=1;" vertex="1" parent="wv_eOz-KuKoO2hbkCVXG-61">
          <mxGeometry y="316" width="380" height="26" as="geometry" />
        </mxCell>
        <mxCell id="n1KUfku4hT0wacVZhFsQ-10" value="+ organizarActoEscolar(lugar: Sum): void" style="text;strokeColor=none;fillColor=none;align=left;verticalAlign=top;spacingLeft=4;spacingRight=4;overflow=hidden;rotatable=0;points=[[0,0.5],[1,0.5]];portConstraint=eastwest;whiteSpace=wrap;html=1;" vertex="1" parent="wv_eOz-KuKoO2hbkCVXG-61">
          <mxGeometry y="342" width="380" height="26" as="geometry" />
        </mxCell>
        <mxCell id="n1KUfku4hT0wacVZhFsQ-100" value="+ agregarCurso(curso: Curso): void" style="text;strokeColor=none;fillColor=none;align=left;verticalAlign=top;spacingLeft=4;spacingRight=4;overflow=hidden;rotatable=0;points=[[0,0.5],[1,0.5]];portConstraint=eastwest;whiteSpace=wrap;html=1;" vertex="1" parent="wv_eOz-KuKoO2hbkCVXG-61">
          <mxGeometry y="368" width="380" height="26" as="geometry" />
        </mxCell>
        <mxCell id="n1KUfku4hT0wacVZhFsQ-101" value="+ quitarCurso(curso: Curso): void" style="text;strokeColor=none;fillColor=none;align=left;verticalAlign=top;spacingLeft=4;spacingRight=4;overflow=hidden;rotatable=0;points=[[0,0.5],[1,0.5]];portConstraint=eastwest;whiteSpace=wrap;html=1;" vertex="1" parent="wv_eOz-KuKoO2hbkCVXG-61">
          <mxGeometry y="394" width="380" height="26" as="geometry" />
        </mxCell>
        <mxCell id="n1KUfku4hT0wacVZhFsQ-9" value="+ listarCursos(): List&amp;lt;Curso&amp;gt;" style="text;strokeColor=none;fillColor=none;align=left;verticalAlign=top;spacingLeft=4;spacingRight=4;overflow=hidden;rotatable=0;points=[[0,0.5],[1,0.5]];portConstraint=eastwest;whiteSpace=wrap;html=1;" vertex="1" parent="wv_eOz-KuKoO2hbkCVXG-61">
          <mxGeometry y="420" width="380" height="26" as="geometry" />
        </mxCell>
        <mxCell id="n1KUfku4hT0wacVZhFsQ-11" value="Alumno" style="swimlane;fontStyle=1;align=center;verticalAlign=top;childLayout=stackLayout;horizontal=1;startSize=26;horizontalStack=0;resizeParent=1;resizeParentMax=0;resizeLast=0;collapsible=1;marginBottom=0;whiteSpace=wrap;html=1;" vertex="1" parent="1">
          <mxGeometry x="30" y="2010" width="220" height="126" as="geometry" />
        </mxCell>
        <mxCell id="n1KUfku4hT0wacVZhFsQ-12" value="- legajo: Int" style="text;strokeColor=none;fillColor=none;align=left;verticalAlign=top;spacingLeft=4;spacingRight=4;overflow=hidden;rotatable=0;points=[[0,0.5],[1,0.5]];portConstraint=eastwest;whiteSpace=wrap;html=1;" vertex="1" parent="n1KUfku4hT0wacVZhFsQ-11">
          <mxGeometry y="26" width="220" height="26" as="geometry" />
        </mxCell>
        <mxCell id="n1KUfku4hT0wacVZhFsQ-13" value="- calificaciones: List&amp;lt;Calificacion&amp;gt;" style="text;strokeColor=none;fillColor=none;align=left;verticalAlign=top;spacingLeft=4;spacingRight=4;overflow=hidden;rotatable=0;points=[[0,0.5],[1,0.5]];portConstraint=eastwest;whiteSpace=wrap;html=1;" vertex="1" parent="n1KUfku4hT0wacVZhFsQ-11">
          <mxGeometry y="52" width="220" height="26" as="geometry" />
        </mxCell>
        <mxCell id="n1KUfku4hT0wacVZhFsQ-14" value="" style="line;strokeWidth=1;fillColor=none;align=left;verticalAlign=middle;spacingTop=-1;spacingLeft=3;spacingRight=3;rotatable=0;labelPosition=right;points=[];portConstraint=eastwest;strokeColor=inherit;" vertex="1" parent="n1KUfku4hT0wacVZhFsQ-11">
          <mxGeometry y="78" width="220" height="22" as="geometry" />
        </mxCell>
        <mxCell id="n1KUfku4hT0wacVZhFsQ-16" value="+ inscribirseACurso(curso: Curso): void" style="text;strokeColor=none;fillColor=none;align=left;verticalAlign=top;spacingLeft=4;spacingRight=4;overflow=hidden;rotatable=0;points=[[0,0.5],[1,0.5]];portConstraint=eastwest;whiteSpace=wrap;html=1;" vertex="1" parent="n1KUfku4hT0wacVZhFsQ-11">
          <mxGeometry y="100" width="220" height="26" as="geometry" />
        </mxCell>
        <mxCell id="n1KUfku4hT0wacVZhFsQ-17" value="Director" style="swimlane;fontStyle=1;align=center;verticalAlign=top;childLayout=stackLayout;horizontal=1;startSize=26;horizontalStack=0;resizeParent=1;resizeParentMax=0;resizeLast=0;collapsible=1;marginBottom=0;whiteSpace=wrap;html=1;" vertex="1" parent="1">
          <mxGeometry x="330" y="2010" width="220" height="126" as="geometry" />
        </mxCell>
        <mxCell id="n1KUfku4hT0wacVZhFsQ-18" value="- legajo: Int" style="text;strokeColor=none;fillColor=none;align=left;verticalAlign=top;spacingLeft=4;spacingRight=4;overflow=hidden;rotatable=0;points=[[0,0.5],[1,0.5]];portConstraint=eastwest;whiteSpace=wrap;html=1;" vertex="1" parent="n1KUfku4hT0wacVZhFsQ-17">
          <mxGeometry y="26" width="220" height="26" as="geometry" />
        </mxCell>
        <mxCell id="n1KUfku4hT0wacVZhFsQ-19" value="- fechaInicioCargo: Date" style="text;strokeColor=none;fillColor=none;align=left;verticalAlign=top;spacingLeft=4;spacingRight=4;overflow=hidden;rotatable=0;points=[[0,0.5],[1,0.5]];portConstraint=eastwest;whiteSpace=wrap;html=1;" vertex="1" parent="n1KUfku4hT0wacVZhFsQ-17">
          <mxGeometry y="52" width="220" height="26" as="geometry" />
        </mxCell>
        <mxCell id="n1KUfku4hT0wacVZhFsQ-20" value="" style="line;strokeWidth=1;fillColor=none;align=left;verticalAlign=middle;spacingTop=-1;spacingLeft=3;spacingRight=3;rotatable=0;labelPosition=right;points=[];portConstraint=eastwest;strokeColor=inherit;" vertex="1" parent="n1KUfku4hT0wacVZhFsQ-17">
          <mxGeometry y="78" width="220" height="22" as="geometry" />
        </mxCell>
        <mxCell id="n1KUfku4hT0wacVZhFsQ-21" value="+ calcularAntiguedad(): Int" style="text;strokeColor=none;fillColor=none;align=left;verticalAlign=top;spacingLeft=4;spacingRight=4;overflow=hidden;rotatable=0;points=[[0,0.5],[1,0.5]];portConstraint=eastwest;whiteSpace=wrap;html=1;" vertex="1" parent="n1KUfku4hT0wacVZhFsQ-17">
          <mxGeometry y="100" width="220" height="26" as="geometry" />
        </mxCell>
        <mxCell id="n1KUfku4hT0wacVZhFsQ-22" value="Docente" style="swimlane;fontStyle=1;align=center;verticalAlign=top;childLayout=stackLayout;horizontal=1;startSize=26;horizontalStack=0;resizeParent=1;resizeParentMax=0;resizeLast=0;collapsible=1;marginBottom=0;whiteSpace=wrap;html=1;" vertex="1" parent="1">
          <mxGeometry x="627" y="2010" width="292" height="178" as="geometry" />
        </mxCell>
        <mxCell id="n1KUfku4hT0wacVZhFsQ-23" value="- legajo: Int" style="text;strokeColor=none;fillColor=none;align=left;verticalAlign=top;spacingLeft=4;spacingRight=4;overflow=hidden;rotatable=0;points=[[0,0.5],[1,0.5]];portConstraint=eastwest;whiteSpace=wrap;html=1;" vertex="1" parent="n1KUfku4hT0wacVZhFsQ-22">
          <mxGeometry y="26" width="292" height="26" as="geometry" />
        </mxCell>
        <mxCell id="n1KUfku4hT0wacVZhFsQ-24" value="- especialidad: String" style="text;strokeColor=none;fillColor=none;align=left;verticalAlign=top;spacingLeft=4;spacingRight=4;overflow=hidden;rotatable=0;points=[[0,0.5],[1,0.5]];portConstraint=eastwest;whiteSpace=wrap;html=1;" vertex="1" parent="n1KUfku4hT0wacVZhFsQ-22">
          <mxGeometry y="52" width="292" height="26" as="geometry" />
        </mxCell>
        <mxCell id="n1KUfku4hT0wacVZhFsQ-27" value="- fechaInicioCargo: Date" style="text;strokeColor=none;fillColor=none;align=left;verticalAlign=top;spacingLeft=4;spacingRight=4;overflow=hidden;rotatable=0;points=[[0,0.5],[1,0.5]];portConstraint=eastwest;whiteSpace=wrap;html=1;" vertex="1" parent="n1KUfku4hT0wacVZhFsQ-22">
          <mxGeometry y="78" width="292" height="26" as="geometry" />
        </mxCell>
        <mxCell id="n1KUfku4hT0wacVZhFsQ-25" value="" style="line;strokeWidth=1;fillColor=none;align=left;verticalAlign=middle;spacingTop=-1;spacingLeft=3;spacingRight=3;rotatable=0;labelPosition=right;points=[];portConstraint=eastwest;strokeColor=inherit;" vertex="1" parent="n1KUfku4hT0wacVZhFsQ-22">
          <mxGeometry y="104" width="292" height="22" as="geometry" />
        </mxCell>
        <mxCell id="n1KUfku4hT0wacVZhFsQ-26" value="+ calcularAntiguedad(): Int" style="text;strokeColor=none;fillColor=none;align=left;verticalAlign=top;spacingLeft=4;spacingRight=4;overflow=hidden;rotatable=0;points=[[0,0.5],[1,0.5]];portConstraint=eastwest;whiteSpace=wrap;html=1;" vertex="1" parent="n1KUfku4hT0wacVZhFsQ-22">
          <mxGeometry y="126" width="292" height="26" as="geometry" />
        </mxCell>
        <mxCell id="n1KUfku4hT0wacVZhFsQ-28" value="+ registrarCalficacion(calificacion: Calificacion): void" style="text;strokeColor=none;fillColor=none;align=left;verticalAlign=top;spacingLeft=4;spacingRight=4;overflow=hidden;rotatable=0;points=[[0,0.5],[1,0.5]];portConstraint=eastwest;whiteSpace=wrap;html=1;" vertex="1" parent="n1KUfku4hT0wacVZhFsQ-22">
          <mxGeometry y="152" width="292" height="26" as="geometry" />
        </mxCell>
        <mxCell id="n1KUfku4hT0wacVZhFsQ-29" value="&amp;lt;&amp;lt;Persona&amp;gt;&amp;gt;" style="swimlane;fontStyle=1;align=center;verticalAlign=top;childLayout=stackLayout;horizontal=1;startSize=26;horizontalStack=0;resizeParent=1;resizeParentMax=0;resizeLast=0;collapsible=1;marginBottom=0;whiteSpace=wrap;html=1;" vertex="1" parent="1">
          <mxGeometry x="356" y="2300" width="160" height="216" as="geometry" />
        </mxCell>
        <mxCell id="n1KUfku4hT0wacVZhFsQ-30" value="# nombre: String" style="text;strokeColor=none;fillColor=none;align=left;verticalAlign=top;spacingLeft=4;spacingRight=4;overflow=hidden;rotatable=0;points=[[0,0.5],[1,0.5]];portConstraint=eastwest;whiteSpace=wrap;html=1;" vertex="1" parent="n1KUfku4hT0wacVZhFsQ-29">
          <mxGeometry y="26" width="160" height="26" as="geometry" />
        </mxCell>
        <mxCell id="n1KUfku4hT0wacVZhFsQ-33" value="# apellido: String" style="text;strokeColor=none;fillColor=none;align=left;verticalAlign=top;spacingLeft=4;spacingRight=4;overflow=hidden;rotatable=0;points=[[0,0.5],[1,0.5]];portConstraint=eastwest;whiteSpace=wrap;html=1;" vertex="1" parent="n1KUfku4hT0wacVZhFsQ-29">
          <mxGeometry y="52" width="160" height="26" as="geometry" />
        </mxCell>
        <mxCell id="n1KUfku4hT0wacVZhFsQ-34" value="# dni: Int" style="text;strokeColor=none;fillColor=none;align=left;verticalAlign=top;spacingLeft=4;spacingRight=4;overflow=hidden;rotatable=0;points=[[0,0.5],[1,0.5]];portConstraint=eastwest;whiteSpace=wrap;html=1;" vertex="1" parent="n1KUfku4hT0wacVZhFsQ-29">
          <mxGeometry y="78" width="160" height="26" as="geometry" />
        </mxCell>
        <mxCell id="n1KUfku4hT0wacVZhFsQ-35" value="&lt;div&gt;# fechaNacimiento: Date&lt;/div&gt;" style="text;strokeColor=none;fillColor=none;align=left;verticalAlign=top;spacingLeft=4;spacingRight=4;overflow=hidden;rotatable=0;points=[[0,0.5],[1,0.5]];portConstraint=eastwest;whiteSpace=wrap;html=1;" vertex="1" parent="n1KUfku4hT0wacVZhFsQ-29">
          <mxGeometry y="104" width="160" height="26" as="geometry" />
        </mxCell>
        <mxCell id="n1KUfku4hT0wacVZhFsQ-36" value="# direccion: String" style="text;strokeColor=none;fillColor=none;align=left;verticalAlign=top;spacingLeft=4;spacingRight=4;overflow=hidden;rotatable=0;points=[[0,0.5],[1,0.5]];portConstraint=eastwest;whiteSpace=wrap;html=1;" vertex="1" parent="n1KUfku4hT0wacVZhFsQ-29">
          <mxGeometry y="130" width="160" height="26" as="geometry" />
        </mxCell>
        <mxCell id="n1KUfku4hT0wacVZhFsQ-37" value="# telefono: String" style="text;strokeColor=none;fillColor=none;align=left;verticalAlign=top;spacingLeft=4;spacingRight=4;overflow=hidden;rotatable=0;points=[[0,0.5],[1,0.5]];portConstraint=eastwest;whiteSpace=wrap;html=1;" vertex="1" parent="n1KUfku4hT0wacVZhFsQ-29">
          <mxGeometry y="156" width="160" height="26" as="geometry" />
        </mxCell>
        <mxCell id="n1KUfku4hT0wacVZhFsQ-31" value="" style="line;strokeWidth=1;fillColor=none;align=left;verticalAlign=middle;spacingTop=-1;spacingLeft=3;spacingRight=3;rotatable=0;labelPosition=right;points=[];portConstraint=eastwest;strokeColor=inherit;" vertex="1" parent="n1KUfku4hT0wacVZhFsQ-29">
          <mxGeometry y="182" width="160" height="8" as="geometry" />
        </mxCell>
        <mxCell id="n1KUfku4hT0wacVZhFsQ-32" value="+ obtenerEdad(): Int" style="text;strokeColor=none;fillColor=none;align=left;verticalAlign=top;spacingLeft=4;spacingRight=4;overflow=hidden;rotatable=0;points=[[0,0.5],[1,0.5]];portConstraint=eastwest;whiteSpace=wrap;html=1;" vertex="1" parent="n1KUfku4hT0wacVZhFsQ-29">
          <mxGeometry y="190" width="160" height="26" as="geometry" />
        </mxCell>
        <mxCell id="n1KUfku4hT0wacVZhFsQ-38" value="Calificacion" style="swimlane;fontStyle=1;align=center;verticalAlign=top;childLayout=stackLayout;horizontal=1;startSize=26;horizontalStack=0;resizeParent=1;resizeParentMax=0;resizeLast=0;collapsible=1;marginBottom=0;whiteSpace=wrap;html=1;" vertex="1" parent="1">
          <mxGeometry x="862.5" y="2450" width="250" height="190" as="geometry" />
        </mxCell>
        <mxCell id="n1KUfku4hT0wacVZhFsQ-39" value="&lt;div&gt;- legajo: Int&lt;/div&gt;" style="text;strokeColor=none;fillColor=none;align=left;verticalAlign=top;spacingLeft=4;spacingRight=4;overflow=hidden;rotatable=0;points=[[0,0.5],[1,0.5]];portConstraint=eastwest;whiteSpace=wrap;html=1;" vertex="1" parent="n1KUfku4hT0wacVZhFsQ-38">
          <mxGeometry y="26" width="250" height="26" as="geometry" />
        </mxCell>
        <mxCell id="n1KUfku4hT0wacVZhFsQ-42" value="- materia: Materia" style="text;strokeColor=none;fillColor=none;align=left;verticalAlign=top;spacingLeft=4;spacingRight=4;overflow=hidden;rotatable=0;points=[[0,0.5],[1,0.5]];portConstraint=eastwest;whiteSpace=wrap;html=1;" vertex="1" parent="n1KUfku4hT0wacVZhFsQ-38">
          <mxGeometry y="52" width="250" height="26" as="geometry" />
        </mxCell>
        <mxCell id="n1KUfku4hT0wacVZhFsQ-43" value="- valor: Int" style="text;strokeColor=none;fillColor=none;align=left;verticalAlign=top;spacingLeft=4;spacingRight=4;overflow=hidden;rotatable=0;points=[[0,0.5],[1,0.5]];portConstraint=eastwest;whiteSpace=wrap;html=1;" vertex="1" parent="n1KUfku4hT0wacVZhFsQ-38">
          <mxGeometry y="78" width="250" height="26" as="geometry" />
        </mxCell>
        <mxCell id="n1KUfku4hT0wacVZhFsQ-40" value="" style="line;strokeWidth=1;fillColor=none;align=left;verticalAlign=middle;spacingTop=-1;spacingLeft=3;spacingRight=3;rotatable=0;labelPosition=right;points=[];portConstraint=eastwest;strokeColor=inherit;" vertex="1" parent="n1KUfku4hT0wacVZhFsQ-38">
          <mxGeometry y="104" width="250" height="8" as="geometry" />
        </mxCell>
        <mxCell id="n1KUfku4hT0wacVZhFsQ-41" value="+ modificarLegajo(legajo: Int): void" style="text;strokeColor=none;fillColor=none;align=left;verticalAlign=top;spacingLeft=4;spacingRight=4;overflow=hidden;rotatable=0;points=[[0,0.5],[1,0.5]];portConstraint=eastwest;whiteSpace=wrap;html=1;" vertex="1" parent="n1KUfku4hT0wacVZhFsQ-38">
          <mxGeometry y="112" width="250" height="26" as="geometry" />
        </mxCell>
        <mxCell id="n1KUfku4hT0wacVZhFsQ-44" value="+ modificarMateria(materia: Materia): void" style="text;strokeColor=none;fillColor=none;align=left;verticalAlign=top;spacingLeft=4;spacingRight=4;overflow=hidden;rotatable=0;points=[[0,0.5],[1,0.5]];portConstraint=eastwest;whiteSpace=wrap;html=1;" vertex="1" parent="n1KUfku4hT0wacVZhFsQ-38">
          <mxGeometry y="138" width="250" height="26" as="geometry" />
        </mxCell>
        <mxCell id="n1KUfku4hT0wacVZhFsQ-46" value="+ modificarValor(número: Int): void" style="text;strokeColor=none;fillColor=none;align=left;verticalAlign=top;spacingLeft=4;spacingRight=4;overflow=hidden;rotatable=0;points=[[0,0.5],[1,0.5]];portConstraint=eastwest;whiteSpace=wrap;html=1;" vertex="1" parent="n1KUfku4hT0wacVZhFsQ-38">
          <mxGeometry y="164" width="250" height="26" as="geometry" />
        </mxCell>
        <mxCell id="n1KUfku4hT0wacVZhFsQ-47" value="Materia" style="swimlane;fontStyle=1;align=center;verticalAlign=top;childLayout=stackLayout;horizontal=1;startSize=26;horizontalStack=0;resizeParent=1;resizeParentMax=0;resizeLast=0;collapsible=1;marginBottom=0;whiteSpace=wrap;html=1;" vertex="1" parent="1">
          <mxGeometry x="870" y="1588" width="235" height="164" as="geometry" />
        </mxCell>
        <mxCell id="n1KUfku4hT0wacVZhFsQ-48" value="- codigo: Int" style="text;strokeColor=none;fillColor=none;align=left;verticalAlign=top;spacingLeft=4;spacingRight=4;overflow=hidden;rotatable=0;points=[[0,0.5],[1,0.5]];portConstraint=eastwest;whiteSpace=wrap;html=1;" vertex="1" parent="n1KUfku4hT0wacVZhFsQ-47">
          <mxGeometry y="26" width="235" height="26" as="geometry" />
        </mxCell>
        <mxCell id="n1KUfku4hT0wacVZhFsQ-51" value="- nombre: String" style="text;strokeColor=none;fillColor=none;align=left;verticalAlign=top;spacingLeft=4;spacingRight=4;overflow=hidden;rotatable=0;points=[[0,0.5],[1,0.5]];portConstraint=eastwest;whiteSpace=wrap;html=1;" vertex="1" parent="n1KUfku4hT0wacVZhFsQ-47">
          <mxGeometry y="52" width="235" height="26" as="geometry" />
        </mxCell>
        <mxCell id="n1KUfku4hT0wacVZhFsQ-52" value="- titular: Docente" style="text;strokeColor=none;fillColor=none;align=left;verticalAlign=top;spacingLeft=4;spacingRight=4;overflow=hidden;rotatable=0;points=[[0,0.5],[1,0.5]];portConstraint=eastwest;whiteSpace=wrap;html=1;" vertex="1" parent="n1KUfku4hT0wacVZhFsQ-47">
          <mxGeometry y="78" width="235" height="26" as="geometry" />
        </mxCell>
        <mxCell id="n1KUfku4hT0wacVZhFsQ-53" value="- cargaHoraria: Int" style="text;strokeColor=none;fillColor=none;align=left;verticalAlign=top;spacingLeft=4;spacingRight=4;overflow=hidden;rotatable=0;points=[[0,0.5],[1,0.5]];portConstraint=eastwest;whiteSpace=wrap;html=1;" vertex="1" parent="n1KUfku4hT0wacVZhFsQ-47">
          <mxGeometry y="104" width="235" height="26" as="geometry" />
        </mxCell>
        <mxCell id="n1KUfku4hT0wacVZhFsQ-49" value="" style="line;strokeWidth=1;fillColor=none;align=left;verticalAlign=middle;spacingTop=-1;spacingLeft=3;spacingRight=3;rotatable=0;labelPosition=right;points=[];portConstraint=eastwest;strokeColor=inherit;" vertex="1" parent="n1KUfku4hT0wacVZhFsQ-47">
          <mxGeometry y="130" width="235" height="8" as="geometry" />
        </mxCell>
        <mxCell id="n1KUfku4hT0wacVZhFsQ-50" value="+ modificarCargaHoraria(horas: Int): void" style="text;strokeColor=none;fillColor=none;align=left;verticalAlign=top;spacingLeft=4;spacingRight=4;overflow=hidden;rotatable=0;points=[[0,0.5],[1,0.5]];portConstraint=eastwest;whiteSpace=wrap;html=1;" vertex="1" parent="n1KUfku4hT0wacVZhFsQ-47">
          <mxGeometry y="138" width="235" height="26" as="geometry" />
        </mxCell>
        <mxCell id="n1KUfku4hT0wacVZhFsQ-55" value="&lt;div&gt;&amp;lt;&amp;lt;enumeration&amp;gt;&amp;gt;&lt;/div&gt;&lt;div&gt;TipoLaboratorio&lt;/div&gt;" style="swimlane;fontStyle=0;childLayout=stackLayout;horizontal=1;startSize=40;fillColor=none;horizontalStack=0;resizeParent=1;resizeParentMax=0;resizeLast=0;collapsible=1;marginBottom=0;whiteSpace=wrap;html=1;" vertex="1" parent="1">
          <mxGeometry x="630" y="460" width="140" height="118" as="geometry" />
        </mxCell>
        <mxCell id="n1KUfku4hT0wacVZhFsQ-56" value="FISICA" style="text;strokeColor=none;fillColor=none;align=left;verticalAlign=top;spacingLeft=4;spacingRight=4;overflow=hidden;rotatable=0;points=[[0,0.5],[1,0.5]];portConstraint=eastwest;whiteSpace=wrap;html=1;" vertex="1" parent="n1KUfku4hT0wacVZhFsQ-55">
          <mxGeometry y="40" width="140" height="26" as="geometry" />
        </mxCell>
        <mxCell id="n1KUfku4hT0wacVZhFsQ-57" value="QUIMICA" style="text;strokeColor=none;fillColor=none;align=left;verticalAlign=top;spacingLeft=4;spacingRight=4;overflow=hidden;rotatable=0;points=[[0,0.5],[1,0.5]];portConstraint=eastwest;whiteSpace=wrap;html=1;" vertex="1" parent="n1KUfku4hT0wacVZhFsQ-55">
          <mxGeometry y="66" width="140" height="26" as="geometry" />
        </mxCell>
        <mxCell id="n1KUfku4hT0wacVZhFsQ-58" value="COMPUTACION" style="text;strokeColor=none;fillColor=none;align=left;verticalAlign=top;spacingLeft=4;spacingRight=4;overflow=hidden;rotatable=0;points=[[0,0.5],[1,0.5]];portConstraint=eastwest;whiteSpace=wrap;html=1;" vertex="1" parent="n1KUfku4hT0wacVZhFsQ-55">
          <mxGeometry y="92" width="140" height="26" as="geometry" />
        </mxCell>
        <mxCell id="n1KUfku4hT0wacVZhFsQ-59" value="Curso" style="swimlane;fontStyle=1;align=center;verticalAlign=top;childLayout=stackLayout;horizontal=1;startSize=26;horizontalStack=0;resizeParent=1;resizeParentMax=0;resizeLast=0;collapsible=1;marginBottom=0;whiteSpace=wrap;html=1;" vertex="1" parent="1">
          <mxGeometry x="1147" y="1168" width="250" height="242" as="geometry" />
        </mxCell>
        <mxCell id="n1KUfku4hT0wacVZhFsQ-60" value="- materia: Materia" style="text;strokeColor=none;fillColor=none;align=left;verticalAlign=top;spacingLeft=4;spacingRight=4;overflow=hidden;rotatable=0;points=[[0,0.5],[1,0.5]];portConstraint=eastwest;whiteSpace=wrap;html=1;" vertex="1" parent="n1KUfku4hT0wacVZhFsQ-59">
          <mxGeometry y="26" width="250" height="26" as="geometry" />
        </mxCell>
        <mxCell id="n1KUfku4hT0wacVZhFsQ-63" value="- docente: Docente" style="text;strokeColor=none;fillColor=none;align=left;verticalAlign=top;spacingLeft=4;spacingRight=4;overflow=hidden;rotatable=0;points=[[0,0.5],[1,0.5]];portConstraint=eastwest;whiteSpace=wrap;html=1;" vertex="1" parent="n1KUfku4hT0wacVZhFsQ-59">
          <mxGeometry y="52" width="250" height="26" as="geometry" />
        </mxCell>
        <mxCell id="n1KUfku4hT0wacVZhFsQ-64" value="- aula: Aula" style="text;strokeColor=none;fillColor=none;align=left;verticalAlign=top;spacingLeft=4;spacingRight=4;overflow=hidden;rotatable=0;points=[[0,0.5],[1,0.5]];portConstraint=eastwest;whiteSpace=wrap;html=1;" vertex="1" parent="n1KUfku4hT0wacVZhFsQ-59">
          <mxGeometry y="78" width="250" height="26" as="geometry" />
        </mxCell>
        <mxCell id="n1KUfku4hT0wacVZhFsQ-65" value="- horario: String" style="text;strokeColor=none;fillColor=none;align=left;verticalAlign=top;spacingLeft=4;spacingRight=4;overflow=hidden;rotatable=0;points=[[0,0.5],[1,0.5]];portConstraint=eastwest;whiteSpace=wrap;html=1;" vertex="1" parent="n1KUfku4hT0wacVZhFsQ-59">
          <mxGeometry y="104" width="250" height="26" as="geometry" />
        </mxCell>
        <mxCell id="n1KUfku4hT0wacVZhFsQ-61" value="" style="line;strokeWidth=1;fillColor=none;align=left;verticalAlign=middle;spacingTop=-1;spacingLeft=3;spacingRight=3;rotatable=0;labelPosition=right;points=[];portConstraint=eastwest;strokeColor=inherit;" vertex="1" parent="n1KUfku4hT0wacVZhFsQ-59">
          <mxGeometry y="130" width="250" height="8" as="geometry" />
        </mxCell>
        <mxCell id="n1KUfku4hT0wacVZhFsQ-62" value="+ modificarMateria(materia: Materia): void" style="text;strokeColor=none;fillColor=none;align=left;verticalAlign=top;spacingLeft=4;spacingRight=4;overflow=hidden;rotatable=0;points=[[0,0.5],[1,0.5]];portConstraint=eastwest;whiteSpace=wrap;html=1;" vertex="1" parent="n1KUfku4hT0wacVZhFsQ-59">
          <mxGeometry y="138" width="250" height="26" as="geometry" />
        </mxCell>
        <mxCell id="n1KUfku4hT0wacVZhFsQ-66" value="+ modificarDocente(docente: Docente): void" style="text;strokeColor=none;fillColor=none;align=left;verticalAlign=top;spacingLeft=4;spacingRight=4;overflow=hidden;rotatable=0;points=[[0,0.5],[1,0.5]];portConstraint=eastwest;whiteSpace=wrap;html=1;" vertex="1" parent="n1KUfku4hT0wacVZhFsQ-59">
          <mxGeometry y="164" width="250" height="26" as="geometry" />
        </mxCell>
        <mxCell id="n1KUfku4hT0wacVZhFsQ-67" value="+ modificarAula(aula: Aula): void" style="text;strokeColor=none;fillColor=none;align=left;verticalAlign=top;spacingLeft=4;spacingRight=4;overflow=hidden;rotatable=0;points=[[0,0.5],[1,0.5]];portConstraint=eastwest;whiteSpace=wrap;html=1;" vertex="1" parent="n1KUfku4hT0wacVZhFsQ-59">
          <mxGeometry y="190" width="250" height="26" as="geometry" />
        </mxCell>
        <mxCell id="n1KUfku4hT0wacVZhFsQ-68" value="+ modificarHorario(horario: String): void" style="text;strokeColor=none;fillColor=none;align=left;verticalAlign=top;spacingLeft=4;spacingRight=4;overflow=hidden;rotatable=0;points=[[0,0.5],[1,0.5]];portConstraint=eastwest;whiteSpace=wrap;html=1;" vertex="1" parent="n1KUfku4hT0wacVZhFsQ-59">
          <mxGeometry y="216" width="250" height="26" as="geometry" />
        </mxCell>
        <mxCell id="n1KUfku4hT0wacVZhFsQ-71" value="" style="endArrow=block;endSize=16;endFill=0;html=1;rounded=0;exitX=0.5;exitY=0;exitDx=0;exitDy=0;entryX=0;entryY=0.5;entryDx=0;entryDy=0;" edge="1" parent="1" source="wv_eOz-KuKoO2hbkCVXG-11" target="wv_eOz-KuKoO2hbkCVXG-10">
          <mxGeometry width="160" relative="1" as="geometry">
            <mxPoint x="30" y="720" as="sourcePoint" />
            <mxPoint x="190" y="720" as="targetPoint" />
          </mxGeometry>
        </mxCell>
        <mxCell id="n1KUfku4hT0wacVZhFsQ-72" value="" style="endArrow=block;endSize=16;endFill=0;html=1;rounded=0;exitX=0.5;exitY=0;exitDx=0;exitDy=0;entryX=0.26;entryY=1.075;entryDx=0;entryDy=0;entryPerimeter=0;" edge="1" parent="1" source="wv_eOz-KuKoO2hbkCVXG-23" target="wv_eOz-KuKoO2hbkCVXG-10">
          <mxGeometry x="-0.0004" width="160" relative="1" as="geometry">
            <mxPoint x="23" y="800" as="sourcePoint" />
            <mxPoint x="370" y="637" as="targetPoint" />
            <mxPoint as="offset" />
          </mxGeometry>
        </mxCell>
        <mxCell id="n1KUfku4hT0wacVZhFsQ-73" value="" style="endArrow=block;endSize=16;endFill=0;html=1;rounded=0;exitX=0.5;exitY=0;exitDx=0;exitDy=0;entryX=0.691;entryY=1.135;entryDx=0;entryDy=0;entryPerimeter=0;" edge="1" parent="1" source="wv_eOz-KuKoO2hbkCVXG-30" target="wv_eOz-KuKoO2hbkCVXG-10">
          <mxGeometry width="160" relative="1" as="geometry">
            <mxPoint x="303" y="800" as="sourcePoint" />
            <mxPoint x="412" y="652" as="targetPoint" />
          </mxGeometry>
        </mxCell>
        <mxCell id="n1KUfku4hT0wacVZhFsQ-74" value="" style="endArrow=block;endSize=16;endFill=0;html=1;rounded=0;exitX=0.5;exitY=0;exitDx=0;exitDy=0;entryX=1;entryY=0.5;entryDx=0;entryDy=0;" edge="1" parent="1" source="wv_eOz-KuKoO2hbkCVXG-42" target="wv_eOz-KuKoO2hbkCVXG-10">
          <mxGeometry x="-0.002" width="160" relative="1" as="geometry">
            <mxPoint x="862.5" y="777" as="sourcePoint" />
            <mxPoint x="724.5" y="630" as="targetPoint" />
            <mxPoint as="offset" />
          </mxGeometry>
        </mxCell>
        <mxCell id="n1KUfku4hT0wacVZhFsQ-76" value="" style="endArrow=open;endFill=1;endSize=12;html=1;rounded=0;exitX=0.608;exitY=-0.019;exitDx=0;exitDy=0;exitPerimeter=0;entryX=0.48;entryY=1.167;entryDx=0;entryDy=0;entryPerimeter=0;" edge="1" parent="1" source="wv_eOz-KuKoO2hbkCVXG-30" target="n1KUfku4hT0wacVZhFsQ-58">
          <mxGeometry width="160" relative="1" as="geometry">
            <mxPoint x="630" y="720" as="sourcePoint" />
            <mxPoint x="790" y="720" as="targetPoint" />
          </mxGeometry>
        </mxCell>
        <mxCell id="n1KUfku4hT0wacVZhFsQ-77" value="" style="endArrow=none;html=1;endSize=12;startArrow=diamondThin;startSize=20;startFill=0;edgeStyle=orthogonalEdgeStyle;align=left;verticalAlign=bottom;rounded=0;entryX=0.5;entryY=1;entryDx=0;entryDy=0;endFill=0;" edge="1" parent="1" source="wv_eOz-KuKoO2hbkCVXG-49" target="wv_eOz-KuKoO2hbkCVXG-11">
          <mxGeometry x="-1" y="3" relative="1" as="geometry">
            <mxPoint x="70" y="1110" as="sourcePoint" />
            <mxPoint x="230" y="1110" as="targetPoint" />
            <mxPoint as="offset" />
          </mxGeometry>
        </mxCell>
        <mxCell id="n1KUfku4hT0wacVZhFsQ-78" value="" style="endArrow=none;html=1;endSize=12;startArrow=diamondThin;startSize=20;startFill=0;edgeStyle=orthogonalEdgeStyle;align=left;verticalAlign=bottom;rounded=0;entryX=0.501;entryY=0.993;entryDx=0;entryDy=0;exitX=0.25;exitY=0;exitDx=0;exitDy=0;entryPerimeter=0;endFill=0;" edge="1" parent="1" source="wv_eOz-KuKoO2hbkCVXG-48" target="wv_eOz-KuKoO2hbkCVXG-39">
          <mxGeometry x="-1" y="3" relative="1" as="geometry">
            <mxPoint x="357" y="1071" as="sourcePoint" />
            <mxPoint x="30" y="942" as="targetPoint" />
          </mxGeometry>
        </mxCell>
        <mxCell id="n1KUfku4hT0wacVZhFsQ-79" value="" style="endArrow=none;html=1;endSize=12;startArrow=diamondThin;startSize=20;startFill=0;edgeStyle=orthogonalEdgeStyle;align=left;verticalAlign=bottom;rounded=0;entryX=0.487;entryY=0.983;entryDx=0;entryDy=0;exitX=0.75;exitY=0;exitDx=0;exitDy=0;entryPerimeter=0;endFill=0;" edge="1" parent="1" source="wv_eOz-KuKoO2hbkCVXG-48" target="wv_eOz-KuKoO2hbkCVXG-41">
          <mxGeometry x="-1" y="3" relative="1" as="geometry">
            <mxPoint x="400" y="1100" as="sourcePoint" />
            <mxPoint x="303" y="998" as="targetPoint" />
          </mxGeometry>
        </mxCell>
        <mxCell id="n1KUfku4hT0wacVZhFsQ-80" value="" style="endArrow=none;html=1;endSize=12;startArrow=diamondThin;startSize=20;startFill=0;edgeStyle=orthogonalEdgeStyle;align=left;verticalAlign=bottom;rounded=0;entryX=0.5;entryY=1;entryDx=0;entryDy=0;exitX=1;exitY=0.5;exitDx=0;exitDy=0;endFill=0;" edge="1" parent="1" source="wv_eOz-KuKoO2hbkCVXG-49" target="wv_eOz-KuKoO2hbkCVXG-42">
          <mxGeometry x="-1" y="3" relative="1" as="geometry">
            <mxPoint x="500" y="1100" as="sourcePoint" />
            <mxPoint x="595" y="952" as="targetPoint" />
          </mxGeometry>
        </mxCell>
        <mxCell id="n1KUfku4hT0wacVZhFsQ-83" value="" style="endArrow=block;endSize=16;endFill=0;html=1;rounded=0;exitX=0.5;exitY=0;exitDx=0;exitDy=0;" edge="1" parent="1" source="wv_eOz-KuKoO2hbkCVXG-61" target="wv_eOz-KuKoO2hbkCVXG-60">
          <mxGeometry width="160" relative="1" as="geometry">
            <mxPoint x="120" y="1440" as="sourcePoint" />
            <mxPoint x="530" y="1450" as="targetPoint" />
          </mxGeometry>
        </mxCell>
        <mxCell id="n1KUfku4hT0wacVZhFsQ-84" value="" style="endArrow=none;html=1;endSize=12;startArrow=diamondThin;startSize=20;startFill=1;edgeStyle=orthogonalEdgeStyle;align=left;verticalAlign=bottom;rounded=0;endFill=0;exitX=0;exitY=0.5;exitDx=0;exitDy=0;entryX=0.5;entryY=0;entryDx=0;entryDy=0;" edge="1" parent="1" source="n1KUfku4hT0wacVZhFsQ-9" target="n1KUfku4hT0wacVZhFsQ-11">
          <mxGeometry x="-1" y="3" relative="1" as="geometry">
            <mxPoint x="-90" y="1930" as="sourcePoint" />
            <mxPoint x="70" y="1930" as="targetPoint" />
          </mxGeometry>
        </mxCell>
        <mxCell id="n1KUfku4hT0wacVZhFsQ-87" value="" style="endArrow=none;html=1;endSize=12;startArrow=diamondThin;startSize=20;startFill=1;edgeStyle=orthogonalEdgeStyle;align=left;verticalAlign=bottom;rounded=0;endFill=0;exitX=1;exitY=0.5;exitDx=0;exitDy=0;entryX=0.5;entryY=0;entryDx=0;entryDy=0;" edge="1" parent="1" source="n1KUfku4hT0wacVZhFsQ-9" target="n1KUfku4hT0wacVZhFsQ-22">
          <mxGeometry x="-1" y="3" relative="1" as="geometry">
            <mxPoint x="370" y="1878" as="sourcePoint" />
            <mxPoint x="150" y="2020" as="targetPoint" />
            <Array as="points">
              <mxPoint x="773" y="1893" />
            </Array>
          </mxGeometry>
        </mxCell>
        <mxCell id="n1KUfku4hT0wacVZhFsQ-88" value="" style="endArrow=block;endSize=16;endFill=0;html=1;rounded=0;exitX=0.49;exitY=1.111;exitDx=0;exitDy=0;exitPerimeter=0;entryX=0;entryY=0;entryDx=0;entryDy=0;" edge="1" parent="1" source="n1KUfku4hT0wacVZhFsQ-16" target="n1KUfku4hT0wacVZhFsQ-29">
          <mxGeometry width="160" relative="1" as="geometry">
            <mxPoint x="10" y="2350" as="sourcePoint" />
            <mxPoint x="170" y="2350" as="targetPoint" />
          </mxGeometry>
        </mxCell>
        <mxCell id="n1KUfku4hT0wacVZhFsQ-89" value="" style="endArrow=block;endSize=16;endFill=0;html=1;rounded=0;exitX=0.483;exitY=1.154;exitDx=0;exitDy=0;exitPerimeter=0;entryX=0.5;entryY=0;entryDx=0;entryDy=0;" edge="1" parent="1" source="n1KUfku4hT0wacVZhFsQ-21" target="n1KUfku4hT0wacVZhFsQ-29">
          <mxGeometry width="160" relative="1" as="geometry">
            <mxPoint x="148" y="2149" as="sourcePoint" />
            <mxPoint x="360" y="2310" as="targetPoint" />
          </mxGeometry>
        </mxCell>
        <mxCell id="n1KUfku4hT0wacVZhFsQ-90" value="" style="endArrow=block;endSize=16;endFill=0;html=1;rounded=0;exitX=0.509;exitY=1.077;exitDx=0;exitDy=0;exitPerimeter=0;entryX=1;entryY=0;entryDx=0;entryDy=0;" edge="1" parent="1" source="n1KUfku4hT0wacVZhFsQ-28" target="n1KUfku4hT0wacVZhFsQ-29">
          <mxGeometry width="160" relative="1" as="geometry">
            <mxPoint x="443" y="2150" as="sourcePoint" />
            <mxPoint x="440" y="2310" as="targetPoint" />
          </mxGeometry>
        </mxCell>
        <mxCell id="n1KUfku4hT0wacVZhFsQ-91" value="" style="endArrow=open;endFill=1;endSize=12;html=1;rounded=0;exitX=0.247;exitY=1.068;exitDx=0;exitDy=0;exitPerimeter=0;entryX=0;entryY=0.5;entryDx=0;entryDy=0;" edge="1" parent="1" source="n1KUfku4hT0wacVZhFsQ-16" target="n1KUfku4hT0wacVZhFsQ-44">
          <mxGeometry width="160" relative="1" as="geometry">
            <mxPoint x="90" y="2460" as="sourcePoint" />
            <mxPoint x="250" y="2460" as="targetPoint" />
            <Array as="points">
              <mxPoint x="84" y="2601" />
            </Array>
          </mxGeometry>
        </mxCell>
        <mxCell id="n1KUfku4hT0wacVZhFsQ-92" value="" style="endArrow=open;endSize=12;dashed=1;html=1;rounded=0;exitX=0.5;exitY=0;exitDx=0;exitDy=0;" edge="1" parent="1" source="n1KUfku4hT0wacVZhFsQ-38" target="n1KUfku4hT0wacVZhFsQ-50">
          <mxGeometry width="160" relative="1" as="geometry">
            <mxPoint x="1180" y="2260" as="sourcePoint" />
            <mxPoint x="980" y="1790" as="targetPoint" />
          </mxGeometry>
        </mxCell>
        <mxCell id="n1KUfku4hT0wacVZhFsQ-94" value="" style="endArrow=none;html=1;endSize=12;startArrow=diamondThin;startSize=20;startFill=1;edgeStyle=orthogonalEdgeStyle;align=left;verticalAlign=bottom;rounded=0;endFill=0;exitX=1;exitY=0.5;exitDx=0;exitDy=0;entryX=0;entryY=0.5;entryDx=0;entryDy=0;" edge="1" parent="1" source="n1KUfku4hT0wacVZhFsQ-7" target="n1KUfku4hT0wacVZhFsQ-51">
          <mxGeometry x="-1" y="3" relative="1" as="geometry">
            <mxPoint x="448" y="1879" as="sourcePoint" />
            <mxPoint x="770" y="1700" as="targetPoint" />
            <Array as="points">
              <mxPoint x="770" y="1763" />
              <mxPoint x="770" y="1655" />
              <mxPoint x="870" y="1655" />
            </Array>
          </mxGeometry>
        </mxCell>
        <mxCell id="n1KUfku4hT0wacVZhFsQ-95" value="" style="endArrow=open;endFill=1;endSize=12;html=1;rounded=0;exitX=0.208;exitY=1.103;exitDx=0;exitDy=0;exitPerimeter=0;entryX=0.75;entryY=0;entryDx=0;entryDy=0;" edge="1" parent="1" source="n1KUfku4hT0wacVZhFsQ-50" target="n1KUfku4hT0wacVZhFsQ-22">
          <mxGeometry width="160" relative="1" as="geometry">
            <mxPoint x="730" y="1840" as="sourcePoint" />
            <mxPoint x="890" y="1840" as="targetPoint" />
          </mxGeometry>
        </mxCell>
        <mxCell id="n1KUfku4hT0wacVZhFsQ-96" value="" style="endArrow=open;endSize=12;dashed=1;html=1;rounded=0;exitX=0;exitY=0.5;exitDx=0;exitDy=0;entryX=0.5;entryY=0;entryDx=0;entryDy=0;" edge="1" parent="1" source="n1KUfku4hT0wacVZhFsQ-66" target="n1KUfku4hT0wacVZhFsQ-47">
          <mxGeometry width="160" relative="1" as="geometry">
            <mxPoint x="1250" y="1540" as="sourcePoint" />
            <mxPoint x="1410" y="1540" as="targetPoint" />
            <Array as="points">
              <mxPoint x="988" y="1345" />
            </Array>
          </mxGeometry>
        </mxCell>
        <mxCell id="n1KUfku4hT0wacVZhFsQ-97" value="" style="endArrow=open;endSize=12;dashed=1;html=1;rounded=0;entryX=1;entryY=0.5;entryDx=0;entryDy=0;exitX=0.249;exitY=1.085;exitDx=0;exitDy=0;exitPerimeter=0;" edge="1" parent="1" source="n1KUfku4hT0wacVZhFsQ-68" target="n1KUfku4hT0wacVZhFsQ-27">
          <mxGeometry width="160" relative="1" as="geometry">
            <mxPoint x="1280" y="1490" as="sourcePoint" />
            <mxPoint x="998" y="1600" as="targetPoint" />
            <Array as="points">
              <mxPoint x="1210" y="2101" />
            </Array>
          </mxGeometry>
        </mxCell>
        <mxCell id="n1KUfku4hT0wacVZhFsQ-98" value="" style="endArrow=open;endSize=12;dashed=1;html=1;rounded=0;exitX=0.25;exitY=0;exitDx=0;exitDy=0;entryX=1;entryY=0.5;entryDx=0;entryDy=0;" edge="1" parent="1" source="n1KUfku4hT0wacVZhFsQ-59" target="wv_eOz-KuKoO2hbkCVXG-44">
          <mxGeometry width="160" relative="1" as="geometry">
            <mxPoint x="1215" y="1423" as="sourcePoint" />
            <mxPoint x="929" y="2111" as="targetPoint" />
            <Array as="points">
              <mxPoint x="1210" y="855" />
            </Array>
          </mxGeometry>
        </mxCell>
        <mxCell id="n1KUfku4hT0wacVZhFsQ-103" value="" style="endArrow=open;endSize=12;dashed=1;html=1;rounded=0;exitX=1;exitY=0.5;exitDx=0;exitDy=0;entryX=0;entryY=0.5;entryDx=0;entryDy=0;" edge="1" parent="1" source="wv_eOz-KuKoO2hbkCVXG-64" target="n1KUfku4hT0wacVZhFsQ-64">
          <mxGeometry width="160" relative="1" as="geometry">
            <mxPoint x="1157" y="1355" as="sourcePoint" />
            <mxPoint x="998" y="1598" as="targetPoint" />
            <Array as="points">
              <mxPoint x="770" y="1551" />
              <mxPoint x="770" y="1260" />
            </Array>
          </mxGeometry>
        </mxCell>
      </root>
    </mxGraphModel>
  </diagram>
</mxfile>
